<?xml version="1.0" encoding="UTF-8"?>
<svg id="Capa_1" data-name="Capa 1" xmlns="http://www.w3.org/2000/svg" viewBox="0 0 188.6 47.88">
  <defs>
    <style>
      .cls-1 {
        fill: #806e33;
      }
    </style>
  </defs>
  <path class="cls-1" d="M142.8,17.44H45.8c-3.03,0-5.5,2.47-5.5,5.5v2c0,3.03,2.47,5.5,5.5,5.5h97c3.03,0,5.5-2.47,5.5-5.5v-2c0-3.03-2.47-5.5-5.5-5.5Zm4.5,7.5c0,2.48-2.02,4.5-4.5,4.5h-61.33c1.69-.81,2.86-2.52,2.86-4.5v-2c0-1.98-1.18-3.69-2.87-4.5h61.33c2.48,0,4.5,2.02,4.5,4.5v2Z"/>
</svg>