<?xml version="1.0" encoding="utf-8"?>
<!-- Generator: Adobe Illustrator 26.5.0, SVG Export Plug-In . SVG Version: 6.00 Build 0)  -->
<svg version="1.1" id="Capa_1" xmlns="http://www.w3.org/2000/svg" xmlns:xlink="http://www.w3.org/1999/xlink" x="0px" y="0px"
	 viewBox="0 0 16 16" style="enable-background:new 0 0 16 16;" xml:space="preserve">
<style type="text/css">
	.st0{fill:none;stroke:#95C11F;stroke-width:0.5;stroke-linecap:round;stroke-linejoin:round;stroke-miterlimit:10;}
</style>
<path class="st0" d="M13.6,5.4c0.2-0.2,0.4-0.4,0.6-0.6c0.1-0.1,0.2-0.2,0.3-0.3c0.1-0.1,0.2-0.2,0.3-0.3c0,0,0,0,0-0.1
	c0,0,0,0-0.1,0c-0.1,0-0.3,0-0.4,0.1c-0.1,0-0.3,0.1-0.4,0.1c-0.3,0.1-0.6,0.1-0.8,0.2c-0.8,0.2-1.7,0.3-2.5,0.5
	C10.2,4.9,10,5,9.8,5C9.5,4.5,9.2,4,8.9,3.5C8.6,3.1,8.4,2.7,8.1,2.4C7.9,2.2,7.8,2,7.7,1.8C7.6,1.7,7.5,1.6,7.4,1.5
	C7.3,1.3,7.2,1.4,7.2,1.6c-0.3,0.9-0.7,1.8-1,2.7c-0.2,0.5-0.3,1-0.5,1.5c0,0,0,0,0,0C5,5.8,4.4,5.9,3.8,6c-0.3,0-0.6,0.1-0.9,0.1
	c-0.3,0-0.6,0-1,0.1c-0.2,0-0.5,0-0.7,0.1c0,0-0.1,0-0.1,0.1c0,0.1,0,0.1,0.1,0.1c0.1,0.1,0.2,0.1,0.3,0.2c0.3,0.2,0.7,0.4,1,0.6
	c0.6,0.4,1.2,0.7,1.7,1c0.2,0.1,0.4,0.2,0.6,0.3c-0.3,1.3-0.5,2.6-0.8,3.9c-0.1,0.4-0.5,2.3-0.1,2.2c0.2,0,0.4-0.3,0.5-0.4
	c0.5-0.6,1-1.2,1.5-1.7c0.7-0.8,1.4-1.5,2.2-2.2c1.9,0.9,3.7,1.9,5.6,2.8c-0.3-0.7-0.6-1.4-0.9-2.1c-0.5-1.2-1.1-2.4-1.7-3.6
	c0.1-0.1,0.3-0.3,0.4-0.4C12.3,6.6,13,6,13.6,5.4z"/>
<path class="st0" d="M5.9,7.2C6,7.3,6,7.3,6,7.4c0,0,0.1,0.1,0.2,0C6.3,7.3,6.1,7.1,5.9,7.2"/>
<path class="st0" d="M9.2,6.7c0,0.1,0,0.2,0.1,0.2s0.2,0,0.2-0.1C9.5,6.6,9.4,6.6,9.2,6.7C9.3,6.6,9.3,6.7,9.2,6.7"/>
<path class="st0" d="M7.5,8.3c0.2,0.1,0.4,0.1,0.6,0.1c0.2,0,0.4-0.2,0.4-0.4"/>
<path class="st0" d="M11.3,2c0.2-0.4,0.3-0.8,0.5-1.2"/>
<path class="st0" d="M14.2,8.4c0.4,0.1,0.8,0.2,1.2,0.4"/>
<path class="st0" d="M8.8,13.4c0.1,0.4,0.2,0.9,0.3,1.3"/>
<path class="st0" d="M0.8,11.2c0.5-0.3,1.1-0.5,1.6-0.8"/>
<path class="st0" d="M4,3.3C3.7,2.9,3.5,2.4,3.3,2"/>
</svg>
