<?xml version="1.0" encoding="UTF-8"?>
<svg id="Capa_1" data-name="Capa 1" xmlns="http://www.w3.org/2000/svg" viewBox="0 0 16 16">
  <defs>
    <style>
      .cls-1 {
        stroke-linejoin: round;
      }

      .cls-1, .cls-2 {
        fill: none;
        stroke: #b2e067;
        stroke-linecap: round;
        stroke-width: .5px;
      }

      .cls-2 {
        stroke-miterlimit: 10;
      }
    </style>
  </defs>
  <path class="cls-1" d="M13.99,5.22c.21-.21,.43-.43,.64-.64,.11-.11,.21-.21,.32-.32,.11-.11,.21-.21,.32-.32v-.11h-.11c-.11,0-.32,0-.43,.11-.11,0-.32,.11-.43,.11-.32,.11-.64,.11-.85,.21-.55,.14-1.12,.23-1.68,.33-.51,.09-1.04,.27-1.56,.27-.07,0-.13,0-.19-.02-.14-.05-.2-.21-.27-.32l-.26-.43-.53-.89c-.32-.43-.53-.85-.85-1.18-.21-.21-.32-.43-.43-.64-.11-.11-.21-.21-.32-.32-.11-.21-.21-.11-.21,.11-.32,.96-.75,1.92-1.07,2.89-.21,.53-.32,1.07-.53,1.6-.75,0-1.39,.11-2.03,.21-.32,0-.64,.11-.96,.11s-.64,0-1.07,.11c-.21,0-.53,0-.75,.11,0,0-.11,0-.11,.11s0,.11,.11,.11c.11,.11,.21,.11,.32,.21,.32,.21,.75,.43,1.07,.64,.64,.43,1.28,.75,1.82,1.07,.21,.11,.43,.21,.64,.32-.32,1.39-.53,2.78-.85,4.17-.11,.43-.53,2.46-.11,2.35,.21,0,.43-.32,.53-.43,.53-.64,1.07-1.28,1.6-1.82,.75-.85,1.5-1.6,2.35-2.35,2.03,.96,3.95,2.03,5.98,2.99-.32-.75-.64-1.5-.96-2.24-.53-1.28-1.18-2.56-1.82-3.85,.11-.11,.32-.32,.43-.43,.85-.53,1.6-1.18,2.24-1.82Z"/>
  <path class="cls-1" d="M5.76,7.14q.11,.11,.11,.21s.11,.11,.21,0c.11-.11-.11-.32-.32-.21"/>
  <path class="cls-1" d="M9.29,6.61c0,.11,0,.21,.11,.21s.21,0,.21-.11c0-.21-.11-.21-.32-.11,.11-.11,.11,0,0,0"/>
  <path class="cls-2" d="M7.47,8.32c.21,.11,.43,.11,.64,.11s.43-.21,.43-.43"/>
</svg>