<?xml version="1.0" encoding="UTF-8"?>
<svg id="Capa_1" data-name="Capa 1" xmlns="http://www.w3.org/2000/svg" viewBox="0 0 50 50">
  <defs>
    <style>
      .cls-1 {
        fill: #46392a;
      }
    </style>
  </defs>
  <path class="cls-1" d="M27.3,36.32c-.36,0-.73-.13-1.02-.4l-10.61-9.82c-.31-.28-.48-.68-.48-1.1s.17-.82,.48-1.1l10.61-9.82c.61-.56,1.56-.53,2.12,.08,.56,.61,.53,1.56-.08,2.12l-9.42,8.72,9.42,8.72c.61,.56,.64,1.51,.08,2.12-.3,.32-.7,.48-1.1,.48Z"/>
  <path class="cls-1" d="M25,48.86C11.84,48.86,1.14,38.16,1.14,25S11.84,1.14,25,1.14s23.86,10.7,23.86,23.86-10.7,23.86-23.86,23.86Zm0-44.72C13.5,4.14,4.14,13.5,4.14,25s9.36,20.86,20.86,20.86,20.86-9.36,20.86-20.86S36.5,4.14,25,4.14Z"/>
</svg>